<svg width="215" height="28" viewBox="0 0 215 28" fill="none" xmlns="http://www.w3.org/2000/svg">
<g clip-path="url(#clip0_30_5902)">
<path d="M45.3233 21.2093C44.0523 21.2093 42.8975 21.0155 41.859 20.628C40.8205 20.2405 39.9215 19.6747 39.162 18.9307C38.4025 18.1867 37.8213 17.28 37.4183 16.2105C37.0153 15.1255 36.8138 13.8932 36.8138 12.5137C36.8138 11.1497 37.0153 9.933 37.4183 8.8635C37.8213 7.7785 38.4025 6.864 39.162 6.12C39.9215 5.376 40.8205 4.81025 41.859 4.42275C42.8975 4.03525 44.0523 3.8415 45.3233 3.8415C46.7803 3.8415 48.0745 4.09725 49.206 4.60875C50.3375 5.10475 51.252 5.80225 51.9495 6.70125C52.647 7.60025 53.0733 8.662 53.2283 9.8865H49.5548C49.4153 9.2975 49.1518 8.786 48.7643 8.352C48.3768 7.9025 47.8885 7.55375 47.2995 7.30575C46.726 7.05775 46.0673 6.93375 45.3233 6.93375C44.3468 6.93375 43.502 7.143 42.789 7.5615C42.076 7.9645 41.5258 8.5845 41.1383 9.4215C40.7508 10.243 40.557 11.2737 40.557 12.5137C40.557 13.4592 40.6655 14.2807 40.8825 14.9782C41.115 15.6757 41.4328 16.257 41.8358 16.722C42.2543 17.187 42.758 17.5357 43.347 17.7682C43.936 18.0007 44.5948 18.117 45.3233 18.117C46.0518 18.117 46.7105 17.993 47.2995 17.745C47.8885 17.497 48.3768 17.1482 48.7643 16.6987C49.1673 16.2492 49.4308 15.73 49.5548 15.141H53.2283C53.0888 16.3655 52.6625 17.435 51.9495 18.3495C51.2365 19.2485 50.3143 19.9537 49.1828 20.4652C48.0513 20.9612 46.7648 21.2093 45.3233 21.2093ZM60.4189 21.2093C59.4734 21.2093 58.6209 21.0698 57.8614 20.7907C57.1019 20.4962 56.4431 20.07 55.8851 19.512C55.3271 18.954 54.9009 18.2797 54.6064 17.4892C54.3119 16.6832 54.1646 15.7765 54.1646 14.769C54.1646 13.4825 54.4126 12.3587 54.9086 11.3977C55.4046 10.4212 56.1176 9.66175 57.0476 9.11925C57.9776 8.57675 59.1014 8.3055 60.4189 8.3055C61.3489 8.3055 62.1936 8.45275 62.9531 8.74725C63.7126 9.04175 64.3636 9.468 64.9061 10.026C65.4641 10.584 65.8904 11.2582 66.1849 12.0487C66.4949 12.8392 66.6499 13.746 66.6499 14.769C66.6499 16.04 66.4019 17.1637 65.9059 18.1402C65.4099 19.1012 64.6969 19.853 63.7669 20.3955C62.8524 20.938 61.7364 21.2093 60.4189 21.2093ZM60.3956 18.4425C60.9536 18.4425 61.4419 18.3107 61.8604 18.0472C62.2944 17.7682 62.6199 17.3575 62.8369 16.815C63.0694 16.2725 63.1856 15.5905 63.1856 14.769C63.1856 14.149 63.1236 13.6142 62.9996 13.1647C62.8756 12.6997 62.6896 12.3122 62.4416 12.0022C62.1936 11.6922 61.8991 11.4675 61.5581 11.328C61.2171 11.173 60.8374 11.0955 60.4189 11.0955C59.8609 11.0955 59.3649 11.2272 58.9309 11.4907C58.5124 11.7542 58.1869 12.1572 57.9544 12.6997C57.7219 13.2422 57.6056 13.932 57.6056 14.769C57.6056 15.389 57.6676 15.9315 57.7916 16.3965C57.9311 16.846 58.1249 17.2257 58.3729 17.5357C58.6209 17.8302 58.9154 18.055 59.2564 18.21C59.5974 18.365 59.9771 18.4425 60.3956 18.4425ZM68.1293 24.8828V8.538H71.4308L71.5471 10.7002H71.7331C72.0276 9.98725 72.5158 9.41375 73.1978 8.97975C73.8953 8.53025 74.7246 8.3055 75.6856 8.3055C76.4296 8.3055 77.1038 8.445 77.7083 8.724C78.3283 8.9875 78.8553 9.3905 79.2893 9.933C79.7388 10.4755 80.0798 11.1497 80.3123 11.9557C80.5603 12.7617 80.6843 13.6995 80.6843 14.769C80.6843 16.195 80.4751 17.3885 80.0566 18.3495C79.6381 19.3105 79.0491 20.0312 78.2896 20.5117C77.5456 20.9922 76.6776 21.2325 75.6856 21.2325C75.0501 21.2325 74.4688 21.1318 73.9418 20.9302C73.4148 20.7287 72.9653 20.4497 72.5933 20.0932C72.2213 19.7367 71.9346 19.3182 71.7331 18.8377H71.5471V24.8828H68.1293ZM74.4068 18.4657C74.9648 18.4657 75.4531 18.334 75.8716 18.0705C76.2901 17.7915 76.6078 17.3807 76.8248 16.8382C77.0573 16.2957 77.1736 15.606 77.1736 14.769C77.1736 13.9165 77.0573 13.219 76.8248 12.6765C76.6078 12.134 76.2901 11.731 75.8716 11.4675C75.4531 11.204 74.9648 11.0722 74.4068 11.0722C73.7713 11.0722 73.2443 11.2195 72.8258 11.514C72.4073 11.8085 72.0973 12.1882 71.8958 12.6532C71.6943 13.1182 71.5936 13.622 71.5936 14.1645V15.3735C71.5936 15.7765 71.6478 16.164 71.7563 16.536C71.8648 16.8925 72.0353 17.218 72.2678 17.5125C72.5003 17.7915 72.7948 18.024 73.1513 18.21C73.5078 18.3805 73.9263 18.4657 74.4068 18.4657ZM82.1447 21V8.538H85.5625V21H82.1447ZM82.1447 6.93375V4.05075H85.5625V6.93375H82.1447ZM87.8046 21V4.05075H91.2224V21H87.8046ZM98.9748 21.2093C98.0293 21.2093 97.1768 21.0698 96.4173 20.7907C95.6578 20.4962 94.9991 20.07 94.4411 19.512C93.8831 18.954 93.4568 18.2797 93.1623 17.4892C92.8678 16.6832 92.7206 15.7765 92.7206 14.769C92.7206 13.4825 92.9686 12.3587 93.4646 11.3977C93.9606 10.4212 94.6736 9.66175 95.6036 9.11925C96.5336 8.57675 97.6573 8.3055 98.9748 8.3055C99.9048 8.3055 100.75 8.45275 101.509 8.74725C102.269 9.04175 102.92 9.468 103.462 10.026C104.02 10.584 104.446 11.2582 104.741 12.0487C105.051 12.8392 105.206 13.746 105.206 14.769C105.206 16.04 104.958 17.1637 104.462 18.1402C103.966 19.1012 103.253 19.853 102.323 20.3955C101.408 20.938 100.292 21.2093 98.9748 21.2093ZM98.9516 18.4425C99.5096 18.4425 99.9978 18.3107 100.416 18.0472C100.85 17.7682 101.176 17.3575 101.393 16.815C101.625 16.2725 101.742 15.5905 101.742 14.769C101.742 14.149 101.68 13.6142 101.556 13.1647C101.432 12.6997 101.246 12.3122 100.998 12.0022C100.75 11.6922 100.455 11.4675 100.114 11.328C99.7731 11.173 99.3933 11.0955 98.9748 11.0955C98.4168 11.0955 97.9208 11.2272 97.4868 11.4907C97.0683 11.7542 96.7428 12.1572 96.5103 12.6997C96.2778 13.2422 96.1616 13.932 96.1616 14.769C96.1616 15.389 96.2236 15.9315 96.3476 16.3965C96.4871 16.846 96.6808 17.2257 96.9288 17.5357C97.1768 17.8302 97.4713 18.055 97.8123 18.21C98.1533 18.365 98.5331 18.4425 98.9516 18.4425ZM110.801 21C109.964 21 109.313 20.876 108.848 20.628C108.383 20.38 108.057 20.0312 107.871 19.5817C107.701 19.1167 107.615 18.5742 107.615 17.9542V11.2815H105.383V8.538H107.615V5.1435L111.01 4.818V8.538H113.521V11.2815H111.01V17.3032C111.01 17.6752 111.095 17.9232 111.266 18.0472C111.436 18.1712 111.684 18.2332 112.01 18.2332H113.521V21H110.801ZM117.791 21L123.813 4.05075H127.37L133.392 21H130.741L129.346 17.0475H121.836L120.441 21H117.791ZM122.441 15.0712H128.718L126.858 9.84L125.673 6.37575H125.533L124.347 9.84L122.441 15.0712ZM134.409 21V8.70075H136.804V21H134.409ZM134.409 6.8175V4.05075H136.804V6.8175H134.409ZM139.434 21V8.70075H141.573L141.689 10.8862H141.805C142.069 10.0957 142.526 9.50675 143.177 9.11925C143.828 8.73175 144.556 8.538 145.362 8.538C145.502 8.538 145.626 8.54575 145.734 8.56125C145.858 8.56125 145.975 8.569 146.083 8.5845V10.8397C145.99 10.8242 145.874 10.8165 145.734 10.8165C145.61 10.8165 145.479 10.8165 145.339 10.8165C144.611 10.8165 143.991 10.9405 143.479 11.1885C142.968 11.4365 142.572 11.8007 142.293 12.2812C142.014 12.7462 141.852 13.312 141.805 13.9785V21H139.434ZM149.082 21L145.943 8.70075H148.408L150.826 18.6052H150.942L153.22 8.70075H155.871L158.219 18.6285H158.289L160.707 8.70075H163.055L159.916 21H156.778L154.499 11.7465H154.406L152.197 21H149.082ZM168.244 21.2093C167.5 21.2093 166.818 21.0698 166.198 20.7907C165.593 20.5117 165.066 20.1087 164.617 19.5817C164.167 19.0392 163.818 18.3727 163.57 17.5823C163.338 16.7917 163.222 15.8772 163.222 14.8387C163.222 13.4747 163.431 12.32 163.849 11.3745C164.283 10.429 164.872 9.716 165.616 9.2355C166.376 8.7395 167.252 8.4915 168.244 8.4915C168.926 8.4915 169.546 8.6 170.104 8.817C170.677 9.034 171.158 9.344 171.545 9.747C171.948 10.1345 172.243 10.5917 172.429 11.1187H172.568L172.661 8.70075H174.963V21H172.568V18.5587H172.429C172.134 19.3492 171.623 19.9925 170.894 20.4885C170.166 20.969 169.282 21.2093 168.244 21.2093ZM169.081 19.233C169.84 19.233 170.476 19.0547 170.987 18.6982C171.499 18.3417 171.886 17.8845 172.15 17.3265C172.413 16.7685 172.545 16.1717 172.545 15.5362V14.1412C172.545 13.5057 172.413 12.909 172.15 12.351C171.886 11.793 171.499 11.3357 170.987 10.9792C170.476 10.6227 169.84 10.4445 169.081 10.4445C168.399 10.4445 167.802 10.615 167.29 10.956C166.779 11.2815 166.384 11.7697 166.105 12.4207C165.826 13.0562 165.686 13.8622 165.686 14.8387C165.686 15.7997 165.826 16.6057 166.105 17.2567C166.384 17.9077 166.779 18.4037 167.29 18.7447C167.802 19.0702 168.399 19.233 169.081 19.233ZM176.806 24.8828V22.9065H178.131C178.488 22.9065 178.79 22.8523 179.038 22.7438C179.302 22.6508 179.526 22.4958 179.712 22.2788C179.898 22.0773 180.053 21.8138 180.177 21.4883L180.921 19.5817V20.628L175.876 8.70075H178.503L181.317 16.1872L181.828 17.652H181.921L182.409 16.1872L185.06 8.70075H187.594L182.479 22.0695C182.216 22.767 181.898 23.3173 181.526 23.7203C181.169 24.1388 180.743 24.4333 180.247 24.6038C179.751 24.7898 179.178 24.8828 178.527 24.8828H176.806ZM193.082 21.2325C191.393 21.2325 190.091 20.8605 189.176 20.1165C188.277 19.357 187.828 18.365 187.828 17.1405H190.199C190.199 17.9775 190.478 18.5897 191.036 18.9772C191.594 19.3492 192.3 19.5352 193.152 19.5352C194.036 19.5352 194.702 19.3802 195.152 19.0702C195.617 18.7447 195.849 18.2952 195.849 17.7217C195.849 17.2567 195.748 16.9002 195.547 16.6522C195.345 16.4042 195.028 16.2182 194.594 16.0942C194.16 15.9547 193.594 15.8307 192.896 15.7222C192.199 15.6292 191.563 15.513 190.99 15.3735C190.416 15.2185 189.913 15.0092 189.479 14.7457C189.06 14.4822 188.735 14.1412 188.502 13.7227C188.285 13.3042 188.177 12.785 188.177 12.165C188.177 11.3745 188.378 10.708 188.781 10.1655C189.2 9.623 189.781 9.2045 190.525 8.91C191.269 8.6155 192.137 8.46825 193.129 8.46825C194.152 8.46825 195.02 8.62325 195.733 8.93325C196.461 9.24325 197.019 9.685 197.407 10.2585C197.81 10.832 198.019 11.5217 198.035 12.3277H195.686C195.686 11.8317 195.578 11.4287 195.361 11.1187C195.144 10.7932 194.842 10.553 194.454 10.398C194.067 10.243 193.609 10.1655 193.082 10.1655C192.276 10.1655 191.656 10.3282 191.222 10.6537C190.788 10.9792 190.571 11.4055 190.571 11.9325C190.571 12.32 190.68 12.6377 190.897 12.8857C191.114 13.1337 191.447 13.3275 191.897 13.467C192.346 13.591 192.912 13.6995 193.594 13.7925C194.245 13.8855 194.849 14.0017 195.407 14.1412C195.965 14.2807 196.461 14.4822 196.895 14.7457C197.329 14.9937 197.67 15.3425 197.918 15.792C198.166 16.2415 198.29 16.815 198.29 17.5125C198.29 18.768 197.825 19.7057 196.895 20.3257C195.965 20.9303 194.694 21.2325 193.082 21.2325Z" fill="white"/>
<g clip-path="url(#clip1_30_5902)">
<path fill-rule="evenodd" clip-rule="evenodd" d="M27.922 18.992C27.0612 20.4873 22.0631 24.0155 16.0001 24.0155C9.93702 24.0155 4.9389 20.4873 4.07814 18.992C4.01519 18.8826 3.99487 18.7578 3.99487 18.6316V15.9697C3.99487 15.8594 4.01191 15.7497 4.05274 15.6472C4.42496 14.7125 5.3998 13.3549 6.6579 12.9906C6.82469 12.5624 7.07173 11.9365 7.30223 11.4744C7.26364 11.1209 7.25006 10.7563 7.25006 10.3879C7.25006 9.0569 7.53218 7.88946 8.38225 7.02009C8.7793 6.61404 9.27196 6.30257 9.85622 6.06843C11.2555 4.93166 13.2481 3.97534 15.9785 3.97534C18.7089 3.97534 20.7446 4.93166 22.1439 6.06843C22.7282 6.30257 23.2208 6.61404 23.6179 7.02009C24.4679 7.88946 24.7501 9.0569 24.7501 10.3879C24.7501 10.7563 24.7365 11.1209 24.6979 11.4744C24.9284 11.9365 25.1754 12.5624 25.3422 12.9906C26.6003 13.3549 27.5752 14.7125 27.9474 15.6472C27.9882 15.7497 28.0052 15.8594 28.0052 15.9697V18.6316C28.0052 18.7578 27.9849 18.8826 27.922 18.992ZM16.8133 10.0652C16.7708 9.73368 16.7505 9.43681 16.7499 9.17156L16.7499 9.15059C16.7513 8.38111 16.9195 7.88043 17.1882 7.57292C17.5294 7.18244 18.2345 6.88327 19.7208 7.04412C21.2265 7.20707 22.0682 7.58079 22.5454 8.06879C23.0073 8.54125 23.25 9.24811 23.25 10.3879C23.25 11.5988 23.0755 12.3143 22.6918 12.7495C22.3269 13.1633 21.6084 13.5001 20.0347 13.5001C18.8249 13.5001 18.1332 13.1066 17.691 12.5624C17.2162 11.9781 16.9489 11.122 16.8133 10.0652ZM15.1868 10.0652C15.2294 9.73367 15.2496 9.4368 15.2502 9.17156L15.2502 9.15059C15.2489 8.38111 15.0807 7.88042 14.812 7.57292C14.4708 7.18243 13.7656 6.88327 12.2793 7.04411C10.7736 7.20707 9.93193 7.58079 9.45476 8.06879C8.99279 8.54125 8.75008 9.24811 8.75008 10.3879C8.75008 11.5988 8.9246 12.3143 9.30832 12.7495C9.67319 13.1633 10.3917 13.5001 11.9654 13.5001C13.1752 13.5001 13.8669 13.1066 14.3091 12.5624C14.784 11.978 15.0512 11.122 15.1868 10.0652ZM16.1723 12.9996C16.1149 12.9999 16.2297 12.9996 16.1723 12.9996C16.1149 12.9996 15.8853 12.9999 15.8278 12.9996C15.722 13.1769 15.6043 13.3471 15.4732 13.5084C14.7035 14.4555 13.5546 15.0001 11.9654 15.0001C10.2404 15.0001 8.97628 14.6411 8.18316 13.7415C8.13807 13.6903 8.09772 13.6368 8.09772 13.6368L8.00006 13.7415V20.3256C9.43487 21.1054 12.5145 22.5047 16.0001 22.5047C19.4857 22.5047 22.5653 21.1054 24.0001 20.3256V13.7415L23.9024 13.6368C23.9024 13.6368 23.8694 13.6821 23.817 13.7415C23.0238 14.6411 21.7597 15.0001 20.0347 15.0001C18.4455 15.0001 17.2966 14.4555 16.5269 13.5084C16.3959 13.3471 16.2781 13.1769 16.1723 12.9996Z" fill="white"/>
<path fill-rule="evenodd" clip-rule="evenodd" d="M18.5001 16.2501C19.0523 16.2501 19.5001 16.6978 19.5001 17.2501V19.2501C19.5001 19.8023 19.0523 20.2501 18.5001 20.2501C17.9478 20.2501 17.5001 19.8023 17.5001 19.2501V17.2501C17.5001 16.6978 17.9478 16.2501 18.5001 16.2501Z" fill="white"/>
<path fill-rule="evenodd" clip-rule="evenodd" d="M13.5001 16.2501C14.0523 16.2501 14.5001 16.6978 14.5001 17.2501V19.2501C14.5001 19.8023 14.0523 20.2501 13.5001 20.2501C12.9478 20.2501 12.5001 19.8023 12.5001 19.2501V17.2501C12.5001 16.6978 12.9478 16.2501 13.5001 16.2501Z" fill="white"/>
</g>
</g>
<defs>
<clipPath id="clip0_30_5902">
<rect width="215" height="28" fill="white"/>
</clipPath>
<clipPath id="clip1_30_5902">
<rect width="24" height="24" fill="white" transform="translate(4 2)"/>
</clipPath>
</defs>
</svg>
